<svg width="133" height="150" viewBox="0 0 133 150" fill="none" xmlns="http://www.w3.org/2000/svg">
<path d="M97.8441 53.853C107.477 60.735 119.278 64.785 132.023 64.785V40.272C129.611 40.2722 127.205 40.0208 124.845 39.522V58.817C112.101 58.817 100.302 54.767 90.6661 47.885V97.91C90.6661 122.935 70.3701 143.22 45.3341 143.22C35.9931 143.22 27.3101 140.397 20.0981 135.556C28.3291 143.969 39.8101 149.188 52.5101 149.188C77.5481 149.188 97.8451 128.903 97.8451 103.878V53.852L97.8441 53.853ZM106.699 29.123C101.635 23.6063 98.5232 16.5781 97.8441 9.11998V5.96698H91.0421C92.7541 15.729 98.5941 24.068 106.699 29.123ZM35.9331 116.352C33.1828 112.748 31.6962 108.338 31.7031 103.804C31.7031 92.359 40.9861 83.079 52.4401 83.079C54.5741 83.079 56.6961 83.405 58.7301 84.05V58.99C56.353 58.664 53.954 58.5256 51.5551 58.576V78.083C49.5199 77.4377 47.3973 77.1102 45.2621 77.112C33.8081 77.112 24.5251 86.391 24.5251 97.838C24.5251 105.931 29.1651 112.938 35.9331 116.352Z" fill="#FF004F"/>
<path d="M90.6658 47.885C100.302 54.767 112.101 58.816 124.846 58.816V39.521C117.862 38.0281 111.518 34.3931 106.699 29.123C98.5938 24.068 92.7538 15.728 91.0418 5.96698H73.1758V103.875C73.1358 115.289 63.8668 124.531 52.4388 124.531C45.7038 124.531 39.7198 121.322 35.9308 116.352C29.1648 112.938 24.5238 105.931 24.5238 97.838C24.5238 86.392 33.8068 77.112 45.2608 77.112C47.4548 77.112 49.5708 77.454 51.5538 78.083V58.577C26.9578 59.085 7.17676 79.172 7.17676 103.876C7.17676 116.208 12.1028 127.387 20.0978 135.556C27.5595 140.566 36.3471 143.234 45.3348 143.219C70.3708 143.219 90.6668 122.933 90.6668 97.909L90.6658 47.885Z" fill="black"/>
<path d="M124.845 39.52V34.303C118.43 34.3128 112.142 32.5174 106.699 29.122C111.517 34.3939 117.861 38.0285 124.845 39.52ZM91.042 5.968C90.8786 5.03548 90.7532 4.0967 90.666 3.154V0H65.997V97.909C65.957 109.321 56.691 118.563 45.261 118.563C42.0207 118.568 38.8247 117.811 35.931 116.353C39.721 121.323 45.704 124.531 52.439 124.531C63.866 124.531 73.136 115.29 73.176 103.876V5.967L91.042 5.968ZM51.555 58.578V53.024C49.4937 52.7422 47.4155 52.6012 45.335 52.602C20.297 52.6 0 72.886 0 97.909C0 113.596 7.977 127.422 20.099 135.555C12.104 127.387 7.178 116.207 7.178 103.875C7.178 79.172 26.958 59.086 51.555 58.578Z" fill="#00F2EA"/>
</svg>
