<svg width="229" height="68" viewBox="0 0 229 68" fill="none" xmlns="http://www.w3.org/2000/svg">
<g filter="url(#filter0_d_2_3)">
<path d="M20.7865 21.5589V19.4274C20.0452 19.3178 19.304 19.2691 18.5506 19.2691C9.42466 19.2569 2 26.699 2 35.8585C2 41.2787 4.63691 46.3456 9.07227 49.4516C6.21663 46.3822 4.62476 42.3505 4.62476 38.1484C4.62476 29.1228 11.8428 21.766 20.7865 21.5589Z" fill="#25F4EE"/>
<path d="M21.1879 45.7245C25.2465 45.7123 28.5761 42.4967 28.734 38.4285L28.7462 2.28988H35.3324C35.1866 1.53471 35.1258 0.767353 35.1258 0H26.1336L26.1093 36.1387C25.9635 40.3165 22.4638 43.5808 18.2958 43.4346C17.1657 43.3981 16.0477 43.0935 15.0513 42.5698C16.4609 44.543 18.7454 45.7245 21.1879 45.7245Z" fill="#25F4EE"/>
<path d="M47.6418 14.5553V12.5456C45.2236 12.5456 42.854 11.8391 40.8247 10.5115C42.5988 12.57 44.9927 13.9829 47.6418 14.5553Z" fill="#25F4EE"/>
<path d="M40.8246 10.5115C38.8439 8.23379 37.7503 5.31055 37.7503 2.28986H35.3442C35.964 5.66377 37.9447 8.63574 40.8246 10.5115Z" fill="#FE2C55"/>
<path d="M18.5627 28.2702C14.3826 28.2702 11.0044 31.6563 11.0044 35.8463C11.0044 38.6721 12.5598 41.2543 15.063 42.5576C12.6084 39.1837 13.3497 34.4699 16.7035 32.0095C18.6356 30.5966 21.1389 30.1825 23.4234 30.9133V21.7051C22.6821 21.5955 21.9409 21.5468 21.1875 21.5468C21.0538 21.5468 20.9323 21.5589 20.7986 21.5589V28.6234C20.0695 28.392 19.3161 28.2702 18.5627 28.2702Z" fill="#FE2C55"/>
<path d="M47.6416 14.5553V21.5589C43.1455 21.5589 38.7709 20.1582 35.1254 17.5273V35.8585C35.1254 45.018 27.7008 52.4601 18.5627 52.4601C15.1602 52.4601 11.855 51.4126 9.07227 49.4516C12.1952 52.8255 16.582 54.75 21.1875 54.75C30.3134 54.75 37.7502 47.3079 37.7502 38.1483V19.8171C41.3957 22.4481 45.7703 23.861 50.2664 23.8488V14.8354C49.3793 14.8354 48.5044 14.738 47.6416 14.5553Z" fill="#FE2C55"/>
<path d="M35.1257 35.8585V17.5273C38.7712 20.1582 43.1458 21.5711 47.6419 21.5589V14.5553C44.9928 13.9828 42.5989 12.5699 40.8248 10.5115C37.9448 8.63574 35.9641 5.66377 35.3322 2.28986H28.746L28.7339 38.4285C28.5881 42.6063 25.0884 45.8706 20.9204 45.7244C18.5873 45.6392 16.4121 44.4821 15.0511 42.5698C11.357 40.6331 9.92312 36.0534 11.8552 32.3384C13.1555 29.8415 15.7438 28.2702 18.5508 28.2702C19.3042 28.2702 20.0576 28.392 20.7867 28.6234V21.5589C11.8431 21.7782 4.625 29.135 4.625 38.1605C4.625 42.3627 6.21687 46.3944 9.07251 49.4638C11.8552 51.4248 15.1605 52.4723 18.563 52.4723C27.6888 52.4601 35.1257 45.0058 35.1257 35.8585Z" fill="white"/>
<path d="M59.1611 14.5797H87.2801L84.7039 22.643H77.4129V52.4479H68.3235V22.643L59.1854 22.6552L59.1611 14.5797Z" fill="white"/>
<path d="M133.323 14.5797H162.086L159.51 22.643H151.587V52.4479H142.473V22.643L133.335 22.6552L133.323 14.5797Z" fill="white"/>
<path d="M88.9937 26.6259H97.998V52.4479H89.0423L88.9937 26.6259Z" fill="white"/>
<path d="M101.582 14.4822H110.587V32.1192L119.506 23.3494H130.248L118.959 34.3116L131.597 52.4479H121.681L113.248 39.878L110.575 42.4723V52.4479H101.57L101.582 14.4822Z" fill="white"/>
<path d="M196.974 14.4822H205.978V32.1192L214.897 23.3494H225.639L214.35 34.3116L226.988 52.4479H217.072L208.639 39.878L205.966 42.4723V52.4479H196.961L196.974 14.4822Z" fill="white"/>
<path d="M97.6861 20.8726C98.6441 18.5544 97.5458 15.8967 95.233 14.9364C92.9203 13.9762 90.2688 15.077 89.3108 17.3952C88.3528 19.7134 89.451 22.3711 91.7638 23.3314C94.0766 24.2916 96.7281 23.1908 97.6861 20.8726Z" fill="white"/>
<path d="M160.931 36.9913C160.931 28.928 167.129 22.2167 175.149 21.5833C174.748 21.5589 174.201 21.5346 173.8 21.5346C165.282 21.5346 158.379 28.4651 158.379 36.9913C158.379 45.5296 165.282 52.4357 173.8 52.4479C174.201 52.4479 174.748 52.4236 175.149 52.3992C167.129 51.7658 160.943 45.0545 160.931 36.9913Z" fill="#25F4EE"/>
<path d="M178.649 21.5346C178.235 21.5346 177.689 21.5589 177.288 21.5833C185.769 22.2532 192.113 29.6953 191.444 38.1971C190.849 45.7732 184.846 51.7902 177.288 52.387C177.689 52.4236 178.235 52.4357 178.649 52.4357C187.167 52.4357 194.069 45.5052 194.069 36.9791C194.069 28.4529 187.167 21.5346 178.649 21.5346Z" fill="#FE2C55"/>
<path d="M176.218 44.5064C172.075 44.5064 168.721 41.1447 168.721 36.9913C168.721 32.8378 172.075 29.4761 176.218 29.4761C180.362 29.4761 183.716 32.8378 183.716 36.9913C183.716 41.1447 180.362 44.5064 176.218 44.5064ZM176.218 21.5346C167.7 21.5346 160.798 28.4529 160.798 36.9913C160.798 45.5296 167.7 52.4479 176.218 52.4479C184.737 52.4479 191.639 45.5296 191.639 36.9913C191.639 28.4529 184.724 21.5346 176.218 21.5346Z" fill="white"/>
</g>
<defs>
<filter id="filter0_d_2_3" x="0" y="0" width="228.988" height="67.75" filterUnits="userSpaceOnUse" color-interpolation-filters="sRGB">
<feFlood flood-opacity="0" result="BackgroundImageFix"/>
<feColorMatrix in="SourceAlpha" type="matrix" values="0 0 0 0 0 0 0 0 0 0 0 0 0 0 0 0 0 0 127 0" result="hardAlpha"/>
<feOffset dy="11"/>
<feGaussianBlur stdDeviation="1"/>
<feComposite in2="hardAlpha" operator="out"/>
<feColorMatrix type="matrix" values="0 0 0 0 0 0 0 0 0 0 0 0 0 0 0 0 0 0 0.25 0"/>
<feBlend mode="normal" in2="BackgroundImageFix" result="effect1_dropShadow_2_3"/>
<feBlend mode="normal" in="SourceGraphic" in2="effect1_dropShadow_2_3" result="shape"/>
</filter>
</defs>
</svg>
